<svg version="1.1" viewBox="0.0 0.0 960.0 720.0" fill="none" stroke="none" stroke-linecap="square" stroke-miterlimit="10" xmlns:xlink="http://www.w3.org/1999/xlink" xmlns="http://www.w3.org/2000/svg"><clipPath id="p.0"><path d="m0 0l960.0 0l0 720.0l-960.0 0l0 -720.0z" clip-rule="nonzero"/></clipPath><g clip-path="url(#p.0)"><path fill="#000000" fill-opacity="0.0" d="m0 0l960.0 0l0 720.0l-960.0 0z" fill-rule="evenodd"/><path fill="#000000" fill-opacity="0.0" d="m81.77034 189.27553c21.201553 0 35.229347 -74.54469 14.659576 -68.83157c-9.839859 2.7329636 -8.1449585 21.323456 -8.1449585 32.60266c0 22.414078 -0.14833069 45.31909 4.887642 67.02219c19.919685 85.84599 64.03231 166.79112 66.77654 255.39687c1.1534271 37.242035 -14.23053 86.544464 -45.605705 99.62485c-3.7002716 1.5426636 -8.110519 6.0596924 -11.398903 3.6224976c-14.464142 -10.720215 -1.522255 -38.953186 1.626976 -57.96399c9.620026 -58.072845 28.040138 -113.937775 43.975365 -170.26584c13.500992 -47.72351 28.152359 -95.05667 40.71805 -143.09506c3.937027 -15.051178 -2.6925354 -45.28334 11.402267 -45.28334c7.6775513 0 -1.6757355 17.002396 -3.257309 25.35762c-4.7304535 24.990265 -6.66658 50.5916 -8.1449585 76.07663c-3.2203827 55.514343 -6.2331085 113.361145 8.1449585 166.64328c4.0513763 15.013611 1.43573 34.19937 11.402252 45.283356c11.675461 12.984497 29.69925 -20.988342 35.830414 -38.03833c2.2986908 -6.3923645 10.423477 -16.844269 4.8876495 -19.92569c-3.9144287 -2.1789246 -5.4539948 7.9575806 -6.514633 12.680664c-3.2991638 14.691376 3.076294 37.99176 16.28656 41.660828c10.118134 2.8102417 19.76883 -11.360657 24.431488 -21.735107c2.0015259 -4.453369 7.73407 -14.490082 3.2573242 -14.490082c-10.857697 0 -8.685089 28.978546 0 36.22519c5.662384 4.724579 16.927795 4.4894104 21.174194 -1.8093872c30.075012 -44.61133 39.381622 -104.07187 45.602325 -159.39825c2.0927124 -18.612183 3.2573242 -37.397522 3.2573242 -56.154633c0 -8.452545 5.3742676 -19.380783 0 -25.357635c-2.9237366 -3.2515411 -4.255615 8.135773 -4.884308 12.680679c-2.6427307 19.105392 -8.548828 37.474014 -13.029236 56.150894c-8.007599 33.380493 -8.144928 68.69937 -8.144928 103.247375c0 23.616486 -3.7431946 49.06134 4.8842773 70.64096c3.431427 8.582916 9.635193 18.08139 17.91687 19.92572c8.860748 1.9732666 17.78952 -7.942993 22.804535 -16.303192" fill-rule="evenodd"/><path stroke="#ffffff" stroke-width="8.0" stroke-linejoin="round" stroke-linecap="butt" d="m81.77034 189.27553c21.201553 0 35.229347 -74.54469 14.659576 -68.83157c-9.839859 2.7329636 -8.1449585 21.323456 -8.1449585 32.60266c0 22.414078 -0.14833069 45.31909 4.887642 67.02219c19.919685 85.84599 64.03231 166.79112 66.77654 255.39687c1.1534271 37.242035 -14.23053 86.544464 -45.605705 99.62485c-3.7002716 1.5426636 -8.110519 6.0596924 -11.398903 3.6224976c-14.464142 -10.720215 -1.522255 -38.953186 1.626976 -57.96399c9.620026 -58.072845 28.040138 -113.937775 43.975365 -170.26584c13.500992 -47.72351 28.152359 -95.05667 40.71805 -143.09506c3.937027 -15.051178 -2.6925354 -45.28334 11.402267 -45.28334c7.6775513 0 -1.6757355 17.002396 -3.257309 25.35762c-4.7304535 24.990265 -6.66658 50.5916 -8.1449585 76.07663c-3.2203827 55.514343 -6.2331085 113.361145 8.1449585 166.64328c4.0513763 15.013611 1.43573 34.19937 11.402252 45.283356c11.675461 12.984497 29.69925 -20.988342 35.830414 -38.03833c2.2986908 -6.3923645 10.423477 -16.844269 4.8876495 -19.92569c-3.9144287 -2.1789246 -5.4539948 7.9575806 -6.514633 12.680664c-3.2991638 14.691376 3.076294 37.99176 16.28656 41.660828c10.118134 2.8102417 19.76883 -11.360657 24.431488 -21.735107c2.0015259 -4.453369 7.73407 -14.490082 3.2573242 -14.490082c-10.857697 0 -8.685089 28.978546 0 36.22519c5.662384 4.724579 16.927795 4.4894104 21.174194 -1.8093872c30.075012 -44.61133 39.381622 -104.07187 45.602325 -159.39825c2.0927124 -18.612183 3.2573242 -37.397522 3.2573242 -56.154633c0 -8.452545 5.3742676 -19.380783 0 -25.357635c-2.9237366 -3.2515411 -4.255615 8.135773 -4.884308 12.680679c-2.6427307 19.105392 -8.548828 37.474014 -13.029236 56.150894c-8.007599 33.380493 -8.144928 68.69937 -8.144928 103.247375c0 23.616486 -3.7431946 49.06134 4.8842773 70.64096c3.431427 8.582916 9.635193 18.08139 17.91687 19.92572c8.860748 1.9732666 17.78952 -7.942993 22.804535 -16.303192" fill-rule="evenodd"/><path fill="#000000" fill-opacity="0.0" d="m314.6827 250.864c-7.6222534 1.6967621 -15.268585 17.435287 -9.771942 23.548233c4.8103333 5.34964 16.574738 -19.92572 9.771942 -19.92572" fill-rule="evenodd"/><path stroke="#ffffff" stroke-width="8.0" stroke-linejoin="round" stroke-linecap="butt" d="m314.6827 250.864c-7.6222534 1.6967621 -15.268585 17.435287 -9.771942 23.548233c4.8103333 5.34964 16.574738 -19.92572 9.771942 -19.92572" fill-rule="evenodd"/><path fill="#000000" fill-opacity="0.0" d="m464.53055 297.95837c17.288452 -12.822296 18.36554 -42.310898 21.174164 -65.209045c0.69229126 -5.64386 -3.5638123 -17.03746 -8.144928 -14.490082c-8.480347 4.715576 -9.269775 18.705963 -11.402283 28.980148c-5.6223145 27.087814 -8.982361 56.260452 -3.2572937 83.32164c11.515533 54.43161 44.631287 100.332245 63.522583 152.15323c16.335022 44.80887 7.6430054 139.47256 -35.83377 139.47256c-8.286316 0 -10.9201355 -14.63269 -13.029236 -23.544495c-9.284271 -39.22986 -9.105469 -80.80823 -8.1449585 -121.359985c2.3318481 -98.44925 30.946106 -194.95547 30.946106 -293.4389" fill-rule="evenodd"/><path stroke="#ffffff" stroke-width="8.0" stroke-linejoin="round" stroke-linecap="butt" d="m464.53055 297.95837c17.288452 -12.822296 18.36554 -42.310898 21.174164 -65.209045c0.69229126 -5.64386 -3.5638123 -17.03746 -8.144928 -14.490082c-8.480347 4.715576 -9.269775 18.705963 -11.402283 28.980148c-5.6223145 27.087814 -8.982361 56.260452 -3.2572937 83.32164c11.515533 54.43161 44.631287 100.332245 63.522583 152.15323c16.335022 44.80887 7.6430054 139.47256 -35.83377 139.47256c-8.286316 0 -10.9201355 -14.63269 -13.029236 -23.544495c-9.284271 -39.22986 -9.105469 -80.80823 -8.1449585 -121.359985c2.3318481 -98.44925 30.946106 -194.95547 30.946106 -293.4389" fill-rule="evenodd"/><path fill="#000000" fill-opacity="0.0" d="m423.8113 205.57762c13.218903 -51.44586 61.94754 -94.5677 109.12491 -105.05676c38.38977 -8.535286 88.176025 7.903404 110.75189 43.473953c27.791565 43.7883 49.52466 104.3864 35.8338 155.77573c-16.212402 60.853973 -84.631226 106.86615 -141.70142 106.86615" fill-rule="evenodd"/><path stroke="#ffffff" stroke-width="8.0" stroke-linejoin="round" stroke-linecap="butt" d="m423.8113 205.57762c13.218903 -51.44586 61.94754 -94.5677 109.12491 -105.05676c38.38977 -8.535286 88.176025 7.903404 110.75189 43.473953c27.791565 43.7883 49.52466 104.3864 35.8338 155.77573c-16.212402 60.853973 -84.631226 106.86615 -141.70142 106.86615" fill-rule="evenodd"/><path fill="#000000" fill-opacity="0.0" d="m578.54156 529.8189c5.348877 5.944519 14.881714 13.71814 21.174194 9.054443c16.763855 -12.424683 12.984863 -42.878693 14.659607 -65.20532c0.45135498 -6.0178833 5.4299316 -18.116333 0 -18.116333c-2.428894 0 -2.6691284 4.6279907 -3.2573242 7.2487793c-3.6555176 16.286713 13.044495 43.91504 27.688782 39.847687c17.156982 -4.7652283 16.28656 -36.484253 16.28656 -56.15091" fill-rule="evenodd"/><path stroke="#ffffff" stroke-width="8.0" stroke-linejoin="round" stroke-linecap="butt" d="m578.54156 529.8189c5.348877 5.944519 14.881714 13.71814 21.174194 9.054443c16.763855 -12.424683 12.984863 -42.878693 14.659607 -65.20532c0.45135498 -6.0178833 5.4299316 -18.116333 0 -18.116333c-2.428894 0 -2.6691284 4.6279907 -3.2573242 7.2487793c-3.6555176 16.286713 13.044495 43.91504 27.688782 39.847687c17.156982 -4.7652283 16.28656 -36.484253 16.28656 -56.15091" fill-rule="evenodd"/><path fill="#000000" fill-opacity="0.0" d="m658.35223 444.68408c7.3526 5.4531555 18.155518 1.0365906 26.058533 5.4356384c7.767517 4.3236694 -2.1087646 19.6091 0 28.980164c2.8515625 12.672089 17.801819 24.30371 29.319092 21.73883c15.141663 -3.3720398 23.123718 -46.5578 8.141602 -50.718994c-13.210266 -3.6690674 -16.60852 42.31128 -3.2572632 45.283356c7.1418457 1.5898438 18.347595 -2.8773499 19.543823 -10.867554c1.494751 -9.984314 -4.074707 -19.928864 -8.141602 -28.983887" fill-rule="evenodd"/><path stroke="#ffffff" stroke-width="8.0" stroke-linejoin="round" stroke-linecap="butt" d="m658.35223 444.68408c7.3526 5.4531555 18.155518 1.0365906 26.058533 5.4356384c7.767517 4.3236694 -2.1087646 19.6091 0 28.980164c2.8515625 12.672089 17.801819 24.30371 29.319092 21.73883c15.141663 -3.3720398 23.123718 -46.5578 8.141602 -50.718994c-13.210266 -3.6690674 -16.60852 42.31128 -3.2572632 45.283356c7.1418457 1.5898438 18.347595 -2.8773499 19.543823 -10.867554c1.494751 -9.984314 -4.074707 -19.928864 -8.141602 -28.983887" fill-rule="evenodd"/><path fill="#000000" fill-opacity="0.0" d="m730.0178 457.3618c21.395325 0 37.460754 -34.16986 37.460754 -57.96402c0 -4.5977173 -0.753479 -12.676941 -4.8876343 -12.676941c-9.786987 0 -1.6270142 21.718384 -1.6270142 32.60266c0 25.11258 4.2582397 50.439606 11.398926 74.26349c3.0905151 10.311035 6.9105835 40.29181 0 32.606384c-10.618103 -11.808594 5.6505737 -32.84836 9.775269 -48.905853c2.7860718 -10.846191 -2.0012207 -32.606384 8.141602 -32.606384c10.443237 0 -2.4968262 26.203339 4.8876343 34.41577c5.7579346 6.4035034 17.945679 -7.4196777 19.543884 -16.299469c0.96502686 -5.3615417 5.1105347 -20.165588 1.63031 -16.303192c-9.23877 10.2535095 -1.2643433 38.143677 11.398926 41.660828c14.673401 4.0754395 14.78009 -30.360321 16.28656 -47.096466c1.4690552 -16.32077 4.8876343 -32.50351 4.8876343 -48.905853c0 -4.830017 3.885376 -12.331818 0 -14.490082c-7.071472 -3.9281006 -4.965637 16.737305 -6.5146484 25.357635c-3.8535767 21.446075 -2.2799072 45.647827 6.5146484 65.209045c3.914795 8.7074585 22.146912 12.331757 26.058472 3.622528" fill-rule="evenodd"/><path stroke="#ffffff" stroke-width="8.0" stroke-linejoin="round" stroke-linecap="butt" d="m730.0178 457.3618c21.395325 0 37.460754 -34.16986 37.460754 -57.96402c0 -4.5977173 -0.753479 -12.676941 -4.8876343 -12.676941c-9.786987 0 -1.6270142 21.718384 -1.6270142 32.60266c0 25.11258 4.2582397 50.439606 11.398926 74.26349c3.0905151 10.311035 6.9105835 40.29181 0 32.606384c-10.618103 -11.808594 5.6505737 -32.84836 9.775269 -48.905853c2.7860718 -10.846191 -2.0012207 -32.606384 8.141602 -32.606384c10.443237 0 -2.4968262 26.203339 4.8876343 34.41577c5.7579346 6.4035034 17.945679 -7.4196777 19.543884 -16.299469c0.96502686 -5.3615417 5.1105347 -20.165588 1.63031 -16.303192c-9.23877 10.2535095 -1.2643433 38.143677 11.398926 41.660828c14.673401 4.0754395 14.78009 -30.360321 16.28656 -47.096466c1.4690552 -16.32077 4.8876343 -32.50351 4.8876343 -48.905853c0 -4.830017 3.885376 -12.331818 0 -14.490082c-7.071472 -3.9281006 -4.965637 16.737305 -6.5146484 25.357635c-3.8535767 21.446075 -2.2799072 45.647827 6.5146484 65.209045c3.914795 8.7074585 22.146912 12.331757 26.058472 3.622528" fill-rule="evenodd"/><path fill="#000000" fill-opacity="0.0" d="m878.2309 417.51038c-15.975769 -5.918213 -33.651306 -1.8093872 -50.48999 -1.8093872c-4.3430786 0 -11.088562 4.320984 -13.029236 0c-3.6063843 -8.029724 10.104248 -16.650513 8.1449585 -25.357635c-0.95965576 -4.2644653 -9.03009 -7.138855 -11.402283 -3.6224976c-2.8026123 4.154297 3.968872 15.001465 8.1449585 12.676941" fill-rule="evenodd"/><path stroke="#ffffff" stroke-width="8.0" stroke-linejoin="round" stroke-linecap="butt" d="m878.2309 417.51038c-15.975769 -5.918213 -33.651306 -1.8093872 -50.48999 -1.8093872c-4.3430786 0 -11.088562 4.320984 -13.029236 0c-3.6063843 -8.029724 10.104248 -16.650513 8.1449585 -25.357635c-0.95965576 -4.2644653 -9.03009 -7.138855 -11.402283 -3.6224976c-2.8026123 4.154297 3.968872 15.001465 8.1449585 12.676941" fill-rule="evenodd"/><path fill="#000000" fill-opacity="0.0" d="m669.2402 436.14304c-10.635742 2.656189 -16.95813 14.208923 -26.76117 19.115509" fill-rule="evenodd"/><path stroke="#ffffff" stroke-width="8.0" stroke-linejoin="round" stroke-linecap="butt" d="m669.2402 436.14304c-10.635742 2.656189 -16.95813 14.208923 -26.76117 19.115509" fill-rule="evenodd"/></g></svg>